<svg viewBox="350 437.5 275.0000000000002 137.5000000000001" fill="none" xmlns="http://www.w3.org/2000/svg" xmlns:xlink="http://www.w3.org/1999/xlink" overflow="visible" width="275.0000000000002px" height="137.5000000000001px"><g id="Master/Stickers/Cat"><g id="Cat"><path id="Combined Shape" fill-rule="evenodd" clip-rule="evenodd" d="M596.555 491.563C594.328 510.722 564.477 508.939 564.477 508.939L565.707 527.1C565.707 527.1 564.401 548.733 558.37 555.169C550.083 564.013 506.187 576.544 436.837 562.44C429.26 560.899 427.26 558.178 426.686 557.397C426.586 557.261 426.53 557.184 426.494 557.182C426.45 556.859 426.409 556.537 426.37 556.215C422.916 554.368 415.619 551.016 401.143 546.174C377.819 538.374 352.621 513.022 364.042 488.263C373.957 466.772 387.429 472.333 388.782 479.022C389.269 481.431 387.538 483.477 385.403 486C381.612 490.48 376.547 496.465 380.37 508.664C383.304 518.022 391.847 525.047 400.048 529.854C407.755 534.374 416.211 537.474 424.961 539.279L427.035 539.708C432.11 514.727 455.255 495.645 482.83 497.434C497.925 498.414 517.401 497.457 521.456 486.11C521.303 486.071 521.128 486.031 520.933 485.989C519.851 485.759 518.236 485.51 516.239 485.254C514.852 485.076 513.364 484.906 511.876 484.749C511.355 484.694 510.872 484.644 510.438 484.601C510.178 484.575 509.992 484.558 509.894 484.548C509.344 484.496 508.941 484.009 508.993 483.459C509.044 482.909 509.532 482.505 510.082 482.557C510.183 482.567 510.372 482.585 510.635 482.611C511.073 482.654 511.561 482.704 512.086 482.76C513.588 482.918 515.09 483.091 516.493 483.27C518.541 483.533 520.201 483.788 521.35 484.033C521.599 484.086 521.824 484.138 522.027 484.191C522.185 483.627 522.342 483.07 522.495 482.519C521.818 482.147 520.697 481.731 519.293 481.339C518.325 481.068 517.283 480.822 516.241 480.606C515.875 480.53 515.536 480.464 515.232 480.407C515.051 480.373 514.923 480.35 514.857 480.339C514.313 480.246 513.947 479.729 514.041 479.184C514.134 478.64 514.651 478.274 515.195 478.368C515.271 478.381 515.409 478.405 515.6 478.441C515.916 478.5 516.268 478.569 516.647 478.648C517.73 478.873 518.815 479.129 519.831 479.413C521.131 479.776 522.207 480.147 523.04 480.55C528.1 462.174 530.171 451.465 530.171 451.465L546.211 466.168L561.358 443L570.714 465.723C570.714 465.723 587.936 469.823 594.329 480.807C594.851 480.321 595.451 479.782 596.123 479.203C598.098 477.503 600.291 475.803 602.647 474.216C608.605 470.2 614.571 467.575 620.246 467.007C620.796 466.952 621.286 467.353 621.341 467.903C621.396 468.452 620.995 468.942 620.445 468.997C615.156 469.526 609.473 472.027 603.764 475.874C601.478 477.415 599.346 479.067 597.428 480.718C596.758 481.296 596.162 481.831 595.65 482.311C595.501 482.45 595.376 482.569 595.274 482.666C595.668 483.568 595.989 484.511 596.224 485.498L596.265 485.476C596.725 485.232 597.242 484.959 597.806 484.666C599.418 483.829 601.083 482.992 602.713 482.21C603.287 481.935 603.847 481.671 604.392 481.42C608.118 479.7 610.853 478.679 612.389 478.57C612.94 478.53 613.419 478.945 613.458 479.496C613.498 480.047 613.083 480.525 612.532 480.564C611.334 480.65 608.712 481.629 605.23 483.236C604.694 483.483 604.143 483.742 603.579 484.013C601.969 484.785 600.322 485.613 598.728 486.441C598.17 486.731 597.658 487 597.205 487.242C596.933 487.386 596.741 487.489 596.641 487.543C596.622 487.554 596.602 487.564 596.582 487.573C596.719 488.838 596.717 490.167 596.555 491.563Z" fill="#010101"/><path id="Combined Shape_2" fill-rule="evenodd" clip-rule="evenodd" d="M553.932 479.569C557.598 479.699 561.639 481.02 565.705 484.562C565.705 484.562 561.131 489.859 554.601 491.288L553.932 479.569ZM550.081 491.576C546.584 491.241 542.764 489.545 538.914 485.454C538.914 485.454 543.141 481.422 549.252 480.022L550.081 491.576Z" fill="#F4F0F0"/><path id="Fill 11" fill-rule="evenodd" clip-rule="evenodd" d="M549.254 480.023L550.083 491.577C551.666 491.729 553.181 491.6 554.604 491.289L553.934 479.57C552.288 479.512 550.716 479.688 549.254 480.023" fill="#010101"/><path id="Combined Shape_3" fill-rule="evenodd" clip-rule="evenodd" d="M584.156 474.144C586.83 473.746 590.034 473.945 593.857 475.109C593.857 475.109 593.033 481.85 587.142 484.861L584.156 474.144ZM582.805 486.157C579.938 486.513 576.347 486.151 571.832 484.602C571.832 484.602 573.715 478.513 579.67 475.546L582.805 486.157Z" fill="#F4F0F0"/><path id="Fill 17" fill-rule="evenodd" clip-rule="evenodd" d="M579.668 475.547L582.803 486.157C584.491 485.946 585.924 485.485 587.141 484.861L584.154 474.144C582.448 474.399 580.965 474.901 579.668 475.547" fill="#010101"/></g><path id="Path 19 (Stroke)" fill-rule="evenodd" clip-rule="evenodd" d="M466.567 539.678C464.126 538.883 461.393 538.844 458.129 539.267L458 538.275C461.332 537.844 464.234 537.867 466.876 538.727C469.529 539.591 471.873 541.282 474.119 544.101C477.775 548.689 478.141 552.747 477.982 555.713C477.946 556.385 477.884 557 477.829 557.542C477.824 557.593 477.818 557.643 477.813 557.692C477.754 558.279 477.71 558.758 477.715 559.151C477.72 559.551 477.777 559.787 477.862 559.928C477.928 560.038 478.04 560.139 478.316 560.189C478.695 560.257 479.299 560.248 480.132 560.184C480.7 560.14 481.343 560.074 482.057 560C482.376 559.967 482.709 559.933 483.055 559.898C485.283 559.677 488.008 559.459 490.826 559.652C496.47 560.039 502.57 562.087 505.819 569.115L504.911 569.535C501.877 562.971 496.211 561.024 490.758 560.65C488.028 560.463 485.371 560.673 483.154 560.893C482.819 560.927 482.491 560.96 482.175 560.993C481.454 561.067 480.79 561.136 480.209 561.181C479.383 561.245 478.659 561.267 478.137 561.172C477.637 561.082 477.248 560.847 477.005 560.444C476.781 560.072 476.721 559.618 476.715 559.164C476.709 558.704 476.76 558.167 476.819 557.592C476.824 557.543 476.829 557.493 476.834 557.443C476.889 556.899 476.949 556.306 476.984 555.66C477.133 552.868 476.802 549.073 473.337 544.725C471.187 542.026 468.997 540.469 466.567 539.678Z" fill="#9A9A9A"/></g></svg>