<svg viewBox="312.5 350 374.9999999999998 300.0000000000003" fill="none" xmlns="http://www.w3.org/2000/svg" xmlns:xlink="http://www.w3.org/1999/xlink" overflow="visible" width="374.9999999999998px" height="300.0000000000003px"><g id="Master/Stickers/Plant"><g id="Plant 1"><path id="Combined Shape" fill-rule="evenodd" clip-rule="evenodd" d="M357.958 362.782C391.722 347.964 431.094 351.922 460.249 374.495C465.109 378.258 472.131 385.312 475.828 389.477L466.949 407.045L481.241 397.186C503.433 431.4 496.141 471.159 494.894 477.047C486.267 486.998 429.689 474.517 392.202 448.732L398.853 409.501L377.061 437.078C376.519 436.579 375.983 436.076 375.459 435.571C339.394 400.825 316 387.37 316 387.37C328.797 376.657 346.379 367.864 357.958 362.782ZM589.268 397.518C533.166 435.395 550.983 487.677 550.983 487.677C550.983 487.677 588.907 517.764 643.572 473.46C698.237 429.157 682.071 378.685 682.071 378.685C682.071 378.685 662.603 368.583 630.349 377.728L623.818 400.734L620.894 380.851C618.775 381.649 616.612 382.53 614.404 383.499L608.323 414.895L598.146 391.89C595.245 393.61 592.285 395.482 589.268 397.518Z" fill="#5BA092"/><path id="Fill 7" fill-rule="evenodd" clip-rule="evenodd" d="M422.957 645.963L424.711 581.198C425.894 537.509 457.89 502.617 497.269 502.072C536.728 501.526 569.535 535.657 571.593 579.397L574.595 643.23L422.957 645.963Z" fill="#F3705A"/><path id="Combined Shape_2" fill-rule="evenodd" clip-rule="evenodd" d="M431.267 549.872C443.852 551.37 453.62 562.258 453.62 575.475C453.62 589.716 442.283 601.26 428.299 601.26C426.894 601.26 425.518 601.139 424.176 600.914L424.709 581.199C425.012 570.038 427.335 559.458 431.267 549.872ZM569.542 564.06C566.048 562.295 562.146 561.305 558.029 561.305C543.078 561.305 530.957 574.305 530.957 590.342C530.957 606.379 543.078 619.379 558.029 619.379C563.667 619.379 568.901 617.53 573.236 614.367L571.592 579.397C571.344 574.129 570.64 569.005 569.542 564.06ZM483.818 614.734C469.692 614.734 458.066 628.138 456.573 645.358L510.964 644.378C509.124 627.632 497.675 614.734 483.818 614.734Z" fill="#F4F0F0"/><path id="Fill 9" fill-rule="evenodd" clip-rule="evenodd" d="M529.911 525.814C529.911 531.935 515.656 536.897 498.071 536.897C480.486 536.897 466.23 531.935 466.23 525.814C466.23 519.694 480.486 514.732 498.071 514.732C515.656 514.732 529.911 519.694 529.911 525.814" fill="#E74B33"/><path id="Combined Shape_3" fill-rule="evenodd" clip-rule="evenodd" d="M426.762 395.708C426.79 395.79 426.809 395.872 426.822 395.955C435.105 400.339 443.031 405.956 450.56 412.785C462.122 423.271 472.768 436.621 482.307 452.577L480.3 430.067C480.231 429.288 480.807 428.599 481.586 428.529C482.375 428.455 483.054 429.037 483.124 429.815L485.672 458.397C486.72 460.269 487.753 462.175 488.772 464.113C500.037 485.548 507.213 506.714 511.182 520.37C530.325 502.2 562.343 472.425 591.902 447.811L581.72 422.018C581.433 421.29 581.79 420.467 582.518 420.179C583.243 419.893 584.07 420.248 584.357 420.977L594.197 445.907C614.183 429.375 632.851 415.427 645.394 409.316C646.101 408.975 646.946 409.266 647.29 409.969C647.633 410.673 647.34 411.522 646.637 411.865C643.428 413.428 639.681 415.595 635.418 418.348L663.499 423.267C664.271 423.402 664.786 424.137 664.652 424.907C664.53 425.596 663.932 426.081 663.257 426.081C663.176 426.081 663.093 426.073 663.011 426.06L633.13 420.825C632.809 420.769 632.532 420.608 632.328 420.385C618.057 429.977 598.67 445.403 574.93 466.066L615.52 469.34C616.301 469.403 616.882 470.087 616.819 470.867C616.759 471.608 616.138 472.17 615.408 472.17C615.369 472.17 615.331 472.169 615.292 472.166L571.946 468.671C566.823 473.155 561.506 477.875 556 482.824C538.921 498.179 523.154 512.942 512.065 523.468C513.825 529.774 514.778 533.997 515.038 535.191C514.14 535.388 513.212 535.571 512.256 535.736C512.009 534.609 511.198 531.025 509.737 525.681C504.377 530.782 500.325 534.687 498.042 536.897C496.693 536.896 495.367 536.864 494.063 536.806C495.227 535.671 500.645 530.397 508.868 522.571C505.03 509.125 497.811 487.391 486.233 465.375C485.293 463.587 484.34 461.829 483.376 460.098C483.134 459.888 482.963 459.597 482.907 459.262C477.818 450.218 472.39 441.963 466.657 434.539L429.002 436.283L428.983 436.283L428.972 436.283L428.951 436.284L428.936 436.284C428.183 436.284 427.556 435.692 427.521 434.932C427.485 434.15 428.089 433.487 428.872 433.451L464.498 431.801C459.432 425.508 454.135 419.852 448.631 414.862C431.21 399.069 411.632 389.938 390.442 387.724C389.663 387.643 389.098 386.946 389.18 386.168C389.26 385.388 389.979 384.818 390.736 384.906C402.047 386.087 412.905 389.178 423.232 394.142L413.523 365.661C413.271 364.921 413.666 364.115 414.407 363.862C415.146 363.607 415.953 364.005 416.206 364.747L426.762 395.708Z" fill="#2F6858"/></g><path id="Stars" fill-rule="evenodd" clip-rule="evenodd" d="M533 424.942C533 424.422 533.448 424 534 424C534.552 424 535 424.422 535 424.942V469.662L552.385 452.277C552.754 451.908 553.353 451.908 553.723 452.277C554.092 452.647 554.092 453.246 553.723 453.615L535.338 472H582.058C582.578 472 583 472.448 583 473C583 473.552 582.578 474 582.058 474H536.338L553.723 491.385C554.092 491.754 554.092 492.353 553.723 492.723C553.353 493.092 552.754 493.092 552.385 492.723L535 475.338V521.058C535 521.578 534.552 522 534 522C533.448 522 533 521.578 533 521.058V474.338L514.615 492.723C514.246 493.092 513.647 493.092 513.277 492.723C512.908 492.353 512.908 491.754 513.277 491.385L530.662 474H485.942C485.422 474 485 473.552 485 473C485 472.448 485.422 472 485.942 472H531.662L513.277 453.615C512.908 453.246 512.908 452.647 513.277 452.277C513.647 451.908 514.246 451.908 514.615 452.277L533 470.662V424.942ZM371 582C370.448 582 370 582.421 370 582.94V611.677L359.597 601.274C359.231 600.909 358.639 600.909 358.274 601.274C357.909 601.639 357.909 602.232 358.274 602.597L368.677 613H339.94C339.421 613 339 613.448 339 614C339 614.552 339.421 615 339.94 615H369.677L358.274 626.403C357.909 626.768 357.909 627.361 358.274 627.726C358.639 628.091 359.231 628.091 359.597 627.726L370 617.323V645.06C370 645.579 370.448 646 371 646C371.552 646 372 645.579 372 645.06V616.323L383.403 627.726C383.769 628.091 384.361 628.091 384.726 627.726C385.091 627.361 385.091 626.768 384.726 626.403L373.323 615H402.06C402.579 615 403 614.552 403 614C403 613.448 402.579 613 402.06 613H374.323L384.726 602.597C385.091 602.232 385.091 601.639 384.726 601.274C384.361 600.909 383.769 600.909 383.403 601.274L372 612.677V582.94C372 582.421 371.552 582 371 582Z" fill="#CDB1AA"/></g></svg>