<svg viewBox="0 0 999.9999999999998 999.9999999999998" fill="none" xmlns="http://www.w3.org/2000/svg" xmlns:xlink="http://www.w3.org/1999/xlink" overflow="visible" width="999.9999999999998px" height="999.9999999999998px"><g id="Master/Stickers/Travel"><rect width="1000" height="1000" fill="white"/><g id="Group"><path id="Vector" d="M186.555 297.655L221.172 765.867L403.382 778.407L324.964 276.049L186.555 297.655Z" fill="#BC9D96"/><path id="Vector_2" d="M410.082 258.154L418.972 300.542L439.047 284.882L431.217 248.97L534.479 263.335L543.781 302.661L564.799 303.603L557.263 272.048L528.416 240.669L414.262 240.08L410.082 258.154Z" fill="#EFE3D9"/><path id="Vector_3" d="M324.949 276.049L777.854 311.137L814.002 743.907L403.367 778.407L324.949 276.049Z" fill="#CDB1AA"/><g id="Group_2"><path id="Vector_4" d="M724.608 306.679L687.992 303.859L741.405 746.611L768.663 744.309L724.608 306.679Z" fill="#E3D4C5"/><path id="Vector_5" d="M460.714 773.167L495.684 770.223L429.453 292.945L382.414 289.295L460.714 773.167Z" fill="#E3D4C5"/></g><g id="Group_3"><path id="Vector_6" d="M392.197 281.29L325.023 276.109L335.738 344.696C335.738 344.696 385.191 327.976 392.256 281.29H392.197Z" fill="#F2B08F"/><path id="Vector_7" d="M452.314 774.291C427.706 727.016 393.324 713.652 393.324 713.652L403.45 778.412L452.314 774.291Z" fill="#F2B08F"/><path id="Vector_8" d="M777.874 311.139L739.312 308.137C745.317 324.621 757.857 348.817 782.466 366.597L777.815 311.139H777.874Z" fill="#F2B08F"/><path id="Vector_9" d="M809.722 692.692C796.417 701.935 776.283 720.362 773.516 747.266L813.961 743.852L809.663 692.633L809.722 692.692Z" fill="#F2B08F"/></g><path id="Vector_10" d="M425.313 222.122L535.817 232.366C543.647 233.072 550.24 239.136 551.948 247.261L557.246 272.105L410.065 258.211L407.534 242.727C405.65 231.129 414.245 221.18 425.313 222.181V222.122Z" fill="#9D5D32"/><g id="Group_4"><path id="Vector_11" d="M191.253 361.885C200.143 354.761 207.678 345.872 213.271 335.51C220.277 322.558 224.163 307.428 224.692 291.709L186.484 297.655L191.253 361.885Z" fill="#F2B08F"/><path id="Vector_12" d="M335.68 344.635L324.966 276.049L280.223 283.055C288.347 302.011 304.478 327.562 335.68 344.635Z" fill="#F2B08F"/><path id="Vector_13" d="M216.57 703.58L221.162 765.867L266.141 768.987C255.367 744.614 238.118 721.889 216.57 703.639V703.58Z" fill="#F2B08F"/><path id="Vector_14" d="M393.306 713.648C369.462 732.605 364.34 760.393 363.398 775.641L403.373 778.408L393.247 713.648H393.306Z" fill="#F2B08F"/></g></g></g></svg>