<svg viewBox="0 0 999.9999999999998 999.9999999999998" fill="none" xmlns="http://www.w3.org/2000/svg" xmlns:xlink="http://www.w3.org/1999/xlink" overflow="visible" width="999.9999999999998px" height="999.9999999999998px"><g id="Master/Stickers/Coffee Mug"><rect width="1000" height="1000" fill="white"/><g id="Group"><g id="Group_2"><path id="Vector" d="M283.604 408.448C350.158 397.389 477.735 373.872 642.087 411.978C652.213 414.31 655.411 427.101 647.616 433.963C595.186 479.931 481.266 596.649 277.608 430.765C269.214 423.903 272.878 410.313 283.604 408.514V408.448Z" fill="#5BA092"/><path id="Vector_2" d="M663.42 446.35C650.362 541.284 613.321 650.94 590.204 752.336C589.405 755.933 587.406 759.131 584.608 761.463C562.024 780.45 426.119 826.218 332.917 757.266C328.72 754.135 325.323 750.004 324.657 744.874L261.168 438.489C259.302 424.898 273.359 414.905 285.617 420.968C287.416 421.9 289.348 422.767 291.28 423.766C361.364 457.609 473.619 517.567 638.037 429.429L638.37 429.295C650.695 422.7 665.352 432.56 663.486 446.417L663.42 446.35Z" fill="#5BA092"/><path id="Vector_3" d="M638.043 429.43C473.624 517.635 361.436 457.677 291.285 423.767C344.315 417.905 485.216 399.917 638.043 429.43Z" fill="#571509"/><path id="Vector_4" d="M565.629 725.96C596.074 706.64 625.987 686.388 655.233 665.269C677.817 648.947 700.335 631.759 716.723 609.242C733.112 586.724 742.705 557.811 736.376 530.697C732.912 515.774 724.318 501.717 711.394 493.589C698.203 485.328 681.415 483.796 666.359 487.793C651.302 491.791 637.978 500.917 627.186 512.176C611.863 528.232 611.73 553.547 608.532 575.532C623.588 556.745 643.241 544.221 665.692 535.627C674.952 532.096 686.145 529.764 694.206 535.627C703.333 542.289 703.466 555.879 700.468 566.805C695.272 585.725 683.613 602.247 670.489 616.903C646.506 643.684 616.926 665.469 584.283 680.525C575.822 696.181 568.693 708.572 565.629 726.093V725.96Z" fill="#5BA092"/></g><g id="Group_3"><path id="Vector_5" d="M337.59 732.092C339.389 730.027 341.254 729.561 343.053 729.494C344.851 729.627 346.65 730.094 348.449 732.226C346.584 734.357 344.785 734.757 342.986 734.824C341.187 734.691 339.389 734.224 337.59 732.092Z" fill="#571509"/><path id="Vector_6" d="M349.516 428.1C374.032 425.302 345.119 423.77 369.768 422.837C394.418 421.904 419.134 422.104 443.783 422.637C468.433 423.57 493.082 424.902 517.665 427.301C529.923 428.566 542.181 429.899 554.439 431.431C566.631 433.163 578.889 434.829 591.014 437.027L554.173 434.096C541.915 433.097 529.59 432.23 517.332 431.498C492.749 429.965 468.233 428.633 443.583 428.1C419.001 427.167 394.418 427.034 369.768 427.034C345.186 427.034 374.099 427.634 349.449 428.167L349.516 428.1Z" fill="#AA594F"/></g></g><path id="Vector_7" d="M500.258 384.452C498.649 385.183 496.771 385.183 495.095 384.452C494.357 384.12 476.923 375.887 470.552 355.9C465.389 339.831 468.943 321.239 480.879 300.655C488.456 287.641 497.106 275.556 505.488 263.87C535.529 222.038 550.884 196.938 518.698 167.789C516.15 165.465 515.949 161.547 518.296 159.024C520.643 156.501 524.599 156.301 527.147 158.625C569.19 196.673 543.173 232.861 515.748 271.107C507.567 282.528 499.051 294.347 491.742 306.897C481.617 324.294 478.465 339.433 482.421 352.049C487.048 366.79 500.258 373.164 500.392 373.231C503.544 374.691 504.885 378.41 503.409 381.531C502.739 382.925 501.599 383.987 500.258 384.585V384.452Z" fill="#B7B7B7"/><path id="Vector_8" d="M428.467 330.45C426.898 331.183 425.067 331.183 423.432 330.45C422.712 330.116 405.709 321.847 399.496 301.773C394.46 285.633 397.926 266.96 409.567 246.285C416.957 233.214 425.394 221.076 433.569 209.338C462.868 167.323 477.844 142.113 446.452 112.836C443.967 110.502 443.771 106.567 446.06 104.033C448.349 101.498 452.208 101.298 454.693 103.633C495.698 141.847 470.323 178.193 443.575 216.608C435.596 228.079 427.29 239.95 420.162 252.554C410.287 270.027 407.213 285.233 411.071 297.904C415.584 312.71 428.468 319.112 428.598 319.179C431.672 320.646 432.98 324.381 431.541 327.515C430.887 328.916 429.775 329.983 428.467 330.583V330.45Z" fill="#B7B7B7"/></g></svg>