<svg viewBox="248.8499999999999 188.3709677419356 1714.3000000000002 1218.8709677419356" fill="none" xmlns="http://www.w3.org/2000/svg" xmlns:xlink="http://www.w3.org/1999/xlink" overflow="visible" width="1714.3000000000002px" height="1218.8709677419356px"><g id="Master/Scene/Alone Time"><g id="Living Room"><g id="Group 76"><path id="Fill 1" fill-rule="evenodd" clip-rule="evenodd" d="M1939.3 1338.34L1892.04 1337.79L1841.73 1297.51L1891.65 1298.1H1891.72C1894.61 1298.1 1896.97 1295.76 1897 1292.85C1897.04 1289.92 1894.7 1287.52 1891.78 1287.48L1828.27 1286.74L1770.37 1240.39L1812.44 1240.88H1812.5C1815.4 1240.88 1817.76 1238.54 1817.79 1235.63C1817.83 1232.7 1815.49 1230.3 1812.56 1230.26L1756.91 1229.61L1716.1 1196.94L1758.58 1197.44H1758.64C1761.53 1197.44 1763.89 1195.1 1763.93 1192.19C1763.96 1189.26 1761.62 1186.85 1758.7 1186.82L1702.64 1186.17L1669.79 1159.87L1711.05 1160.35H1711.11C1714.01 1160.35 1716.37 1158.02 1716.4 1155.11C1716.44 1152.17 1714.1 1149.77 1711.17 1149.74L1656.33 1149.09L1619.43 1119.56L1664.58 1120.09H1664.64C1667.53 1120.09 1669.9 1117.75 1669.93 1114.84C1669.96 1111.91 1667.62 1109.51 1664.7 1109.47L1605.97 1108.79L1572.15 1081.71L1623.39 1082.31H1623.45C1626.34 1082.31 1628.71 1079.98 1628.74 1077.07C1628.77 1074.14 1626.43 1071.73 1623.51 1071.7L1535.26 1070.67H1535.2C1534.23 1070.67 1533.32 1070.94 1532.53 1071.4H679.936C679.151 1070.94 678.242 1070.67 677.27 1070.67H677.207L588.958 1071.7C586.036 1071.73 583.696 1074.14 583.73 1077.07C583.764 1079.98 586.126 1082.31 589.019 1082.31H589.082L613.461 1082.03L585.14 1109.04L547.768 1109.47C544.846 1109.51 542.506 1111.91 542.539 1114.84C542.573 1117.75 544.935 1120.09 547.829 1120.09H547.891L573.87 1119.78L542.975 1149.25L501.297 1149.74C498.375 1149.77 496.034 1152.17 496.068 1155.11C496.101 1158.02 498.464 1160.35 501.357 1160.35H501.421L531.705 1160L504.196 1186.23L453.769 1186.82C450.848 1186.85 448.507 1189.26 448.541 1192.19C448.575 1195.1 450.937 1197.44 453.83 1197.44H453.894L492.926 1196.98L458.746 1229.58L399.906 1230.26C396.984 1230.3 394.644 1232.7 394.678 1235.63C394.711 1238.54 397.073 1240.88 399.967 1240.88H400.03L447.477 1240.32L398.99 1286.57L320.693 1287.48C317.771 1287.52 315.431 1289.92 315.465 1292.85C315.499 1295.76 317.861 1298.1 320.754 1298.1H320.817L387.72 1297.31L345.588 1337.49L273.167 1338.34C270.245 1338.37 267.904 1340.78 267.938 1343.71C267.971 1346.62 270.333 1348.96 273.227 1348.96H273.29L334.319 1348.24L333.986 1348.56H1905.33L1939.18 1348.96H1939.24C1942.14 1348.96 1944.5 1346.62 1944.53 1343.71C1944.57 1340.78 1942.23 1338.37 1939.3 1338.34" fill="#FFF5EE"/><path id="Fill 4" fill-rule="evenodd" clip-rule="evenodd" d="M1020.94 1015.5L616.938 1012L648.722 792.391C650.472 780.302 660.807 771.316 673.018 771.266L987.969 770C994.799 769.973 1001.74 773.315 1008.21 778.209C1014.67 783.103 1017.94 789 1017.94 789L1020.94 1015.5Z" fill="#78BFB1"/><path id="Fill 6" fill-rule="evenodd" clip-rule="evenodd" d="M1044.37 768C1035.79 768 1027.83 772.497 1023.4 779.855L1017.94 788.911L1020.94 1015.5L1411.94 1012L1383.4 789.554C1381.82 777.229 1371.36 768 1358.96 768H1044.37Z" fill="#78BFB1"/><path id="Fill 8" fill-rule="evenodd" clip-rule="evenodd" d="M637.074 870.979L498.763 923.063C489.207 926.661 482.802 935.747 482.598 945.993L478.94 1129.65C478.784 1137.53 485.1 1144 492.946 1144H1532.93C1541.06 1144 1547.49 1137.07 1546.9 1128.92L1532.97 934.908C1532.35 926.374 1527.44 918.746 1519.94 914.684L1389.43 844L1410.48 1012.31H616.98L637.074 870.979Z" fill="#78BFB1"/><path id="Fill 10" fill-rule="evenodd" clip-rule="evenodd" d="M544.584 1143H579.938L555.442 1223.21C554.391 1226.65 551.223 1229 547.631 1229C540.632 1229 535.201 1222.88 536.019 1215.92L544.584 1143Z" fill="#CDB1AA"/><path id="Fill 12" fill-rule="evenodd" clip-rule="evenodd" d="M451.268 1251H486.938L413.553 1367.87C411.158 1371.69 406.974 1374 402.473 1374C396.89 1374 393.251 1368.13 395.73 1363.12L451.268 1251Z" fill="#E3D4C5"/><path id="Fill 14" fill-rule="evenodd" clip-rule="evenodd" d="M723.607 1251H687.938L761.322 1367.87C763.716 1371.69 767.901 1374 772.401 1374C777.985 1374 781.625 1368.13 779.145 1363.12L723.607 1251Z" fill="#E3D4C5"/><path id="Fill 16" fill-rule="evenodd" clip-rule="evenodd" d="M1476.29 1143H1440.94L1465.43 1223.21C1466.48 1226.65 1469.65 1229 1473.24 1229C1480.24 1229 1485.67 1222.88 1484.86 1215.92L1476.29 1143Z" fill="#CDB1AA"/><path id="Fill 18" fill-rule="evenodd" clip-rule="evenodd" d="M837.938 1220.5C837.938 1257.78 726.232 1288 588.438 1288C450.643 1288 338.938 1257.78 338.938 1220.5C338.938 1183.22 450.643 1153 588.438 1153C726.232 1153 837.938 1183.22 837.938 1220.5" fill="#CDB1AA"/><path id="Fill 28" fill-rule="evenodd" clip-rule="evenodd" d="M510.03 1198.01L591.341 1194.44L594.938 1197V1203.26L508.133 1259L423.224 1256.1L422.938 1248.69L510.03 1198.01Z" fill="#E3D4C5"/><path id="Fill 30" fill-rule="evenodd" clip-rule="evenodd" d="M508.091 1253.3L591.343 1199.19V1181L508.091 1234.1L423.141 1231.35V1251.25L508.091 1253.3Z" fill="#F4F0F0"/><path id="Fill 32" fill-rule="evenodd" clip-rule="evenodd" d="M510.014 1176L594.938 1178.76L591.341 1185V1181L508.117 1234L423.437 1232.54L421.938 1230L510.014 1176Z" fill="#E3D4C5"/><path id="Combined Shape" fill-rule="evenodd" clip-rule="evenodd" d="M746.438 889C751.132 889 754.938 884.747 754.938 879.5C754.938 874.253 751.132 870 746.438 870C741.744 870 737.938 874.253 737.938 879.5C737.938 884.747 741.744 889 746.438 889ZM883.438 889C888.132 889 891.938 884.747 891.938 879.5C891.938 874.253 888.132 870 883.438 870C878.744 870 874.938 874.253 874.938 879.5C874.938 884.747 878.744 889 883.438 889ZM1139.94 879.5C1139.94 884.747 1136.13 889 1131.44 889C1126.74 889 1122.94 884.747 1122.94 879.5C1122.94 874.253 1126.74 870 1131.44 870C1136.13 870 1139.94 874.253 1139.94 879.5ZM1267.44 889C1272.13 889 1275.94 884.747 1275.94 879.5C1275.94 874.253 1272.13 870 1267.44 870C1262.74 870 1258.94 874.253 1258.94 879.5C1258.94 884.747 1262.74 889 1267.44 889Z" fill="#2F6858"/><path id="Fill 44" fill-rule="evenodd" clip-rule="evenodd" d="M733.765 1036.09L575.849 1066.77C557.742 1068.89 541.344 1055.95 539.223 1037.87L522.165 892.485C520.044 874.405 533.002 858.031 551.109 855.912L709.026 825.227C727.132 823.108 743.531 836.048 745.652 854.128L762.71 999.516C764.831 1017.6 751.872 1033.97 733.765 1036.09" fill="#F4F0F0"/><path id="Combined Shape_2" fill-rule="evenodd" clip-rule="evenodd" d="M717.938 825.452C714.943 824.953 711.831 824.852 708.665 825.225L695.883 827.719L638.755 900.211L546.275 856.884C539.808 858.545 534.186 862.082 529.938 866.83L643.428 920L717.938 825.452ZM745.328 853.595L745.938 858.773L653.679 975L524.115 914.737L521.938 896.226L649 955.328L740.544 840C743.055 844 744.741 848.6 745.328 853.595ZM750.32 895L752.938 917.247L666.639 1026L530.113 962.478L527.938 943.984L661.966 1006.34L750.32 895ZM708.775 1041.34L759.938 976.325L757.334 954L684.938 1046L708.775 1041.34ZM533.938 995L655.938 1052.79L629.547 1058L536.102 1013.74L533.938 995ZM635.236 839.641L658.938 835L630.671 871L584.938 849.494L611.183 844.354L626.048 851.344L635.236 839.641Z" fill="#5BA092"/><path id="Fill 20" fill-rule="evenodd" clip-rule="evenodd" d="M670.938 1173H717.938L716.136 1202.91C715.592 1211.95 708.111 1219 699.065 1219H689.811C680.765 1219 673.284 1211.95 672.739 1202.91L670.938 1173Z" fill="#F3705A"/><path id="Fill 22" fill-rule="evenodd" clip-rule="evenodd" d="M712.938 1209L713.644 1203.13C721.819 1202.48 731.564 1199.18 731.564 1187.17C731.564 1183.26 730.052 1182.34 729.554 1182.03C726.361 1180.1 719.184 1182.34 715.411 1184.21L712.99 1179.48C714.26 1178.85 725.594 1173.42 732.366 1177.52C734.452 1178.79 736.938 1181.49 736.938 1187.17C736.938 1199.51 727.466 1207.84 712.938 1209" fill="#F3705A"/><path id="Fill 72" fill-rule="evenodd" clip-rule="evenodd" d="M717.938 1173.5C717.938 1177.64 707.416 1181 694.438 1181C681.46 1181 670.938 1177.64 670.938 1173.5C670.938 1169.36 681.46 1166 694.438 1166C707.416 1166 717.938 1169.36 717.938 1173.5" fill="#E74B33"/><path id="Combined Shape_3" fill-rule="evenodd" clip-rule="evenodd" d="M698.575 1129.44C698.265 1129.89 698.383 1130.52 698.839 1130.83C705.048 1135.05 707.937 1138.98 707.937 1144.57C707.937 1148.4 706.509 1151.52 703.692 1154.39C701.505 1156.62 699.279 1158.16 693.912 1161.43C692.752 1162.14 692.236 1162.46 691.596 1162.86C683.089 1168.18 678.953 1172.43 678.953 1179.21C678.953 1179.26 679.083 1179.28 679.306 1179.31C679.463 1179.33 679.667 1179.37 679.905 1179.42C680.063 1179.46 680.213 1179.49 680.346 1179.53C680.699 1179.61 680.941 1179.67 680.941 1179.62C680.941 1173.51 684.52 1169.64 692.656 1164.56C693.288 1164.16 693.8 1163.85 694.958 1163.14C700.467 1159.77 702.775 1158.18 705.119 1155.79C708.284 1152.57 709.937 1148.96 709.937 1144.57C709.937 1138.18 706.665 1133.73 699.965 1129.17C699.508 1128.86 698.886 1128.98 698.575 1129.44ZM732.937 1143C732.385 1143 731.937 1143.45 731.937 1144C731.937 1147.9 730.506 1151.08 727.687 1153.99C725.5 1156.26 723.275 1157.82 717.91 1161.15C712.4 1164.57 710.093 1166.19 707.749 1168.62C704.587 1171.89 702.937 1175.55 702.937 1180C702.937 1180.52 703.18 1180.48 703.647 1180.4C703.679 1180.39 703.713 1180.39 703.747 1180.38C703.862 1180.36 703.982 1180.35 704.101 1180.33C704.532 1180.28 704.937 1180.23 704.937 1180C704.937 1176.1 706.368 1172.92 709.187 1170.01C711.375 1167.74 713.6 1166.18 718.965 1162.85C724.475 1159.43 726.782 1157.81 729.125 1155.38C732.287 1152.11 733.937 1148.45 733.937 1144C733.937 1143.45 733.49 1143 732.937 1143Z" fill="#F4F0F0"/><path id="Combined Shape_4" fill-rule="evenodd" clip-rule="evenodd" d="M1018.44 787.5C1017.61 787.5 1016.94 788.172 1016.94 789V1011.82L762.93 1013.03C762.102 1013.03 761.434 1013.7 761.438 1014.53C761.441 1015.36 762.116 1016.03 762.945 1016.03L1295.56 1013.5C1296.39 1013.5 1297.06 1012.82 1297.05 1011.99C1297.05 1011.16 1296.37 1010.5 1295.55 1010.5L1019.94 1011.81V789C1019.94 788.172 1019.27 787.5 1018.44 787.5Z" fill="#2F6858"/><g id="Group 16"><path id="Fill 1_2" fill-rule="evenodd" clip-rule="evenodd" d="M1381.84 976.004C1372.98 976.004 1365.81 968.684 1365.81 959.652C1365.81 950.622 1372.98 943.302 1381.84 943.302C1390.69 943.302 1397.87 950.622 1397.87 959.652C1397.87 968.684 1390.69 976.004 1381.84 976.004M1348.89 1036.76C1341.61 1039.24 1333.4 1034.47 1330.54 1026.1C1327.68 1017.73 1331.27 1008.93 1338.55 1006.44C1345.83 1003.96 1354.04 1008.73 1356.9 1017.1C1359.76 1025.47 1356.17 1034.27 1348.89 1036.76M1440.19 1021.53C1444.93 1021.53 1449.24 1023.28 1452.45 1026.12C1453.94 1022.13 1454.76 1017.81 1454.76 1013.27V929.42C1454.76 920.247 1451.38 911.799 1445.76 905.312C1444.28 916.618 1434.75 925.347 1423.2 925.347C1410.62 925.347 1400.43 915.012 1400.43 902.263C1400.43 898.086 1401.53 894.172 1403.44 890.792L1352.31 885.148C1352.32 885.402 1352.34 885.653 1352.34 885.911C1352.34 894.234 1346.6 900.981 1339.52 900.981C1332.43 900.981 1326.69 894.234 1326.69 885.911C1326.69 884.687 1326.83 883.502 1327.06 882.361L1316.78 881.227C1294.99 878.821 1275.94 895.883 1275.94 917.806V927.199C1277.52 926.828 1279.16 926.629 1280.84 926.629C1294.83 926.629 1306.17 940.122 1306.17 956.768C1306.17 973.412 1294.83 986.905 1280.84 986.905C1279.16 986.905 1277.52 986.706 1275.94 986.336V1001.66C1275.94 1020.42 1290.05 1036.18 1308.7 1038.24L1413.92 1049.85C1418.15 1050.32 1422.28 1050.04 1426.18 1049.15C1423.71 1046.24 1422.23 1042.55 1422.23 1038.53C1422.23 1029.14 1430.27 1021.53 1440.19 1021.53" fill="#F3705A"/><path id="Combined Shape_5" fill-rule="evenodd" clip-rule="evenodd" d="M1339.52 900.981C1346.6 900.981 1352.34 894.234 1352.34 885.912C1352.34 885.737 1352.33 885.566 1352.32 885.395V885.395V885.394V885.394L1352.32 885.393C1352.32 885.311 1352.31 885.23 1352.31 885.148L1327.06 882.362C1326.83 883.502 1326.69 884.687 1326.69 885.912C1326.69 894.234 1332.43 900.981 1339.52 900.981ZM1280.84 926.629C1294.83 926.629 1306.17 940.122 1306.17 956.768C1306.17 973.413 1294.83 986.906 1280.84 986.906C1279.16 986.906 1277.52 986.706 1275.94 986.336V927.2C1277.52 926.829 1279.16 926.629 1280.84 926.629ZM1365.81 959.653C1365.81 950.622 1372.98 943.302 1381.84 943.302C1390.69 943.302 1397.87 950.622 1397.87 959.653C1397.87 968.684 1390.69 976.004 1381.84 976.004C1372.98 976.004 1365.81 968.684 1365.81 959.653ZM1330.54 1026.1C1327.68 1017.73 1331.27 1008.93 1338.55 1006.44C1345.83 1003.96 1354.04 1008.73 1356.9 1017.1C1359.76 1025.47 1356.17 1034.27 1348.89 1036.76C1341.61 1039.24 1333.4 1034.47 1330.54 1026.1ZM1452.45 1026.12C1449.24 1023.28 1444.93 1021.53 1440.19 1021.53C1430.27 1021.53 1422.23 1029.14 1422.23 1038.52C1422.23 1042.55 1423.71 1046.24 1426.18 1049.15C1438.23 1046.39 1448.15 1037.67 1452.45 1026.12ZM1445.76 905.312C1444.28 916.618 1434.75 925.347 1423.2 925.347C1410.62 925.347 1400.43 915.012 1400.43 902.263C1400.43 898.086 1401.53 894.172 1403.44 890.792L1422 892.84C1431.53 893.893 1439.87 898.53 1445.76 905.312Z" fill="#E74B33"/></g></g><rect id="Rectangle" x="421.938" y="1230" width="4" height="26" fill="#E3D4C5"/><g id="Object/Floor" transform="translate(1477.94 797) scale(0.9974811083123426 1)"><g id="Object/Floor/Plant 1"><g id="Plant 1"><path id="Combined Shape" fill-rule="evenodd" clip-rule="evenodd" d="M56.8369 193.781C90.6009 178.963 129.973 182.921 159.128 205.494C163.988 209.257 171.01 216.311 174.707 220.476L165.828 238.044L180.12 228.185C202.312 262.399 195.02 302.158 193.773 308.046C185.146 317.997 128.568 305.516 91.0809 279.731L97.7319 240.5L75.9399 268.077C75.3979 267.578 74.8619 267.075 74.3379 266.57C38.2729 231.824 14.8789 218.369 14.8789 218.369C27.6759 207.656 45.2579 198.863 56.8369 193.781ZM288.147 228.518C232.045 266.395 249.862 318.677 249.862 318.677C249.862 318.677 287.786 348.764 342.451 304.46C397.116 260.157 380.95 209.685 380.95 209.685C380.95 209.685 361.482 199.583 329.228 208.728L322.697 231.734L319.773 211.851C317.654 212.649 315.491 213.53 313.283 214.499L307.202 245.895L297.025 222.89C294.124 224.61 291.164 226.482 288.147 228.518Z" fill="#5BA092"/><path id="Fill 7" fill-rule="evenodd" clip-rule="evenodd" d="M121.836 476.963L123.59 412.198C124.773 368.509 156.769 333.617 196.148 333.072C235.607 332.526 268.414 366.657 270.472 410.397L273.474 474.23L121.836 476.963Z" fill="#F3705A"/><path id="Combined Shape_2" fill-rule="evenodd" clip-rule="evenodd" d="M130.146 380.872C142.731 382.37 152.499 393.258 152.499 406.475C152.499 420.716 141.162 432.26 127.178 432.26C125.773 432.26 124.397 432.139 123.055 431.914L123.588 412.199C123.891 401.038 126.214 390.458 130.146 380.872ZM268.421 395.06C264.927 393.295 261.025 392.305 256.908 392.305C241.957 392.305 229.836 405.305 229.836 421.342C229.836 437.379 241.957 450.379 256.908 450.379C262.546 450.379 267.78 448.53 272.115 445.367L270.471 410.397C270.223 405.129 269.519 400.005 268.421 395.06ZM182.697 445.733C168.571 445.733 156.945 459.137 155.452 476.357L209.843 475.377C208.003 458.631 196.554 445.733 182.697 445.733Z" fill="#F4F0F0"/><path id="Fill 9" fill-rule="evenodd" clip-rule="evenodd" d="M228.79 356.813C228.79 362.934 214.535 367.896 196.95 367.896C179.365 367.896 165.109 362.934 165.109 356.813C165.109 350.693 179.365 345.731 196.95 345.731C214.535 345.731 228.79 350.693 228.79 356.813" fill="#E74B33"/><path id="Combined Shape_3" fill-rule="evenodd" clip-rule="evenodd" d="M125.641 226.708C125.668 226.79 125.688 226.872 125.701 226.954C133.983 231.339 141.91 236.955 149.439 243.784C161.001 254.271 171.647 267.62 181.186 283.577L179.178 261.066C179.109 260.287 179.685 259.598 180.464 259.528C181.253 259.454 181.932 260.036 182.002 260.814L184.551 289.397C185.599 291.269 186.632 293.174 187.651 295.112C198.916 316.548 206.092 337.714 210.061 351.37C229.204 333.2 261.222 303.425 290.78 278.811L280.599 253.017C280.312 252.289 280.669 251.466 281.397 251.178C282.122 250.892 282.949 251.247 283.236 251.976L293.076 276.906C313.062 260.375 331.73 246.426 344.273 240.316C344.98 239.975 345.825 240.266 346.169 240.969C346.512 241.673 346.219 242.522 345.516 242.865C342.307 244.428 338.56 246.595 334.297 249.348L362.378 254.267C363.15 254.402 363.665 255.137 363.531 255.907C363.409 256.596 362.811 257.081 362.136 257.081C362.055 257.081 361.972 257.073 361.89 257.06L332.009 251.825C331.688 251.768 331.411 251.608 331.207 251.385C316.936 260.976 297.549 276.402 273.809 297.066L314.399 300.34C315.18 300.403 315.761 301.087 315.698 301.867C315.638 302.608 315.017 303.17 314.287 303.17C314.248 303.17 314.21 303.169 314.171 303.166L270.825 299.671C265.702 304.155 260.385 308.874 254.879 313.824C237.8 329.178 222.033 343.941 210.944 354.467C212.704 360.774 213.657 364.997 213.917 366.19C213.019 366.387 212.091 366.57 211.135 366.735C210.888 365.609 210.077 362.024 208.616 356.68C203.256 361.781 199.204 365.687 196.921 367.897C195.572 367.896 194.246 367.864 192.942 367.806C194.106 366.67 199.524 361.397 207.746 353.57C203.909 340.125 196.69 318.391 185.112 296.374C184.172 294.587 183.219 292.828 182.255 291.098C182.013 290.888 181.842 290.596 181.786 290.261C176.697 281.218 171.269 272.962 165.536 265.539L127.881 267.282L127.862 267.283L127.851 267.283L127.83 267.283L127.815 267.283C127.062 267.283 126.435 266.691 126.4 265.931C126.364 265.149 126.968 264.486 127.751 264.45L163.377 262.801C158.31 256.508 153.014 250.851 147.51 245.861C130.089 230.068 110.511 220.937 89.3207 218.723C88.5417 218.642 87.9767 217.945 88.0587 217.167C88.1387 216.387 88.8577 215.817 89.6147 215.905C100.926 217.087 111.784 220.178 122.111 225.142L112.402 196.661C112.15 195.921 112.545 195.115 113.286 194.862C114.025 194.607 114.832 195.005 115.085 195.747L125.641 226.708Z" fill="#2F6858"/></g></g></g></g><g id="Background/Sky" transform="translate(1002.94 212) scale(0.997872340425532 1)"><g id="Background/Sky/Stars"><path id="Stars" fill-rule="evenodd" clip-rule="evenodd" d="M99.9883 0C99.1599 0 98.4883 0.671573 98.4883 1.5V47.428L80.8995 29.8397C80.3137 29.2539 79.364 29.254 78.7782 29.8398C78.1924 30.4255 78.1924 31.3753 78.7782 31.9611L96.3674 49.5498H50.4385C49.61 49.5498 48.9385 50.2214 48.9385 51.0498C48.9385 51.8782 49.61 52.5498 50.4385 52.5498H96.3665L78.7782 70.1376C78.1924 70.7234 78.1924 71.6731 78.7782 72.2589C79.364 72.8447 80.3137 72.8447 80.8995 72.259L98.4883 54.6707V100.599C98.4883 101.427 99.1599 102.099 99.9883 102.099C100.817 102.099 101.488 101.427 101.488 100.599V54.6706L119.077 72.2591C119.663 72.8448 120.613 72.8448 121.199 72.259C121.784 71.6733 121.784 70.7235 121.199 70.1377L103.61 52.5498H149.537C150.366 52.5498 151.037 51.8782 151.037 51.0498C151.037 50.2214 150.366 49.5498 149.537 49.5498H103.609L121.199 31.961C121.784 31.3752 121.784 30.4254 121.199 29.8397C120.613 29.2539 119.663 29.2538 119.077 29.8396L101.488 47.4281V1.5C101.488 0.671573 100.817 0 99.9883 0ZM341.938 242.5C341.938 241.672 342.61 241 343.438 241C344.267 241 344.938 241.672 344.938 242.5V314.879L373.378 286.439C373.964 285.854 374.913 285.854 375.499 286.439C376.085 287.025 376.085 287.975 375.499 288.561L347.06 317H420.438C421.267 317 421.938 317.672 421.938 318.5C421.938 319.328 421.267 320 420.438 320H347.06L375.499 348.439C376.085 349.025 376.085 349.975 375.499 350.561C374.913 351.146 373.964 351.146 373.378 350.561L344.938 322.121V395.5C344.938 396.328 344.267 397 343.438 397C342.61 397 341.938 396.328 341.938 395.5V322.121L313.499 350.561C312.913 351.146 311.964 351.146 311.378 350.561C310.792 349.975 310.792 349.025 311.378 348.439L339.817 320H267.438C266.61 320 265.938 319.328 265.938 318.5C265.938 317.672 266.61 317 267.438 317H339.817L311.378 288.561C310.792 287.975 310.792 287.025 311.378 286.439C311.964 285.854 312.913 285.854 313.499 286.439L341.938 314.879V242.5Z" fill="#CDB1AA"/></g></g><g id="Master/Character/Sitting" transform="translate(571.938 410) scale(0.9989690721649485 1)"><g id="Master/Character/Sitting"><g id="Lower Body/Sitting" transform="translate(15.9395 331) scale(0.9988674971687429 1)"><g id="Lower Body/Sitting/Legs up"><g id="Legs up"><path id="Shoe" fill-rule="evenodd" clip-rule="evenodd" d="M539.528 486.212C539.528 486.212 514.948 557.454 481.631 574.049C481.631 574.049 462.008 582.498 460.014 558.031L466.282 477.303L484.005 460.762L539.528 486.212Z" fill="#F3705A"/><path id="Pants" fill-rule="evenodd" clip-rule="evenodd" d="M565.416 7.77766C538.87 21.7877 395.152 110.242 395.152 110.242L289.008 109.766C289.008 109.766 218.068 270 309.94 270C330.083 270.87 471.17 270.706 473.715 270.345C476.62 269.933 557.027 246.679 557.027 246.679L456.819 427.054C456.819 427.054 486.881 496.429 550.86 489.491L644.902 232.804C644.902 232.804 668.211 167.019 627.783 144.578C630.435 130.572 642.695 63.6024 640.597 32.8377C638.248 -1.62034 593.608 -7.10234 565.416 7.77766Z" fill="#3973B0"/><path id="Pants details" fill-rule="evenodd" clip-rule="evenodd" d="M569.504 114.913L552.33 137.812L441.689 142.375L421.269 128.495C420.813 128.184 420.191 128.303 419.88 128.759C419.57 129.216 419.688 129.838 420.145 130.149L440.838 144.215C441.015 144.335 441.227 144.396 441.441 144.387L590.983 138.22C604.94 137.855 616.293 139.984 625.216 144.365C625.712 144.609 626.311 144.404 626.555 143.908C626.798 143.413 626.594 142.813 626.098 142.57C616.864 138.036 605.193 135.848 590.916 136.221L554.91 137.706L571.104 116.113C571.435 115.671 571.346 115.044 570.904 114.713C570.462 114.382 569.835 114.471 569.504 114.913ZM556.141 247.146C556.4 247.634 557.005 247.821 557.493 247.563L575.95 237.802C576.438 237.543 576.625 236.938 576.366 236.45C576.108 235.962 575.503 235.775 575.015 236.034L556.558 245.795C556.07 246.053 555.883 246.658 556.141 247.146Z" fill="#94C0E9"/></g></g></g><g id="Hairstyle" transform="translate(247.939 64) scale(0.9953051643192489 1)"><g id="Hairstyle/Hat"><g id="Hat"><path id="Hair" fill-rule="evenodd" clip-rule="evenodd" d="M180.913 73.882C180.913 73.882 191.022 93.968 209.826 100.159C216.192 102.255 222.118 105.567 226.848 110.314C235.51 119.007 245.658 134.75 244.425 160.219C242.314 203.852 232.453 205.59 258.501 215.816C293.657 229.617 285.947 294.284 238.091 303.785C216.232 308.125 193.949 313.555 173.552 322.629C148.937 333.579 122.172 358.456 93.9288 345.679C70.1288 334.912 60.9828 307.928 66.2018 283.673C69.2878 269.33 75.9278 256.037 82.5638 242.952C89.0218 230.217 93.4418 217.609 81.0678 207.03C74.3708 201.306 65.6868 198.686 60.0668 191.61C47.7508 176.102 62.0388 150.447 62.1528 133.124C62.6948 50.857 86.4638 59.228 86.4638 59.228L136.047 44.451L180.913 73.882Z" fill="#010101"/><path id="Skin" fill-rule="evenodd" clip-rule="evenodd" d="M189.268 102.741C188.93 102.741 188.595 102.752 188.264 102.773C187.402 102.826 186.671 102.16 186.688 101.296C186.693 101.053 186.696 100.808 186.696 100.563C186.696 72.8959 159.285 50.4669 125.473 50.4669C91.6604 50.4669 64.2495 72.8959 64.2495 100.563C64.2495 100.824 64.2525 101.084 64.2575 101.343C64.2755 102.216 63.5295 102.892 62.6605 102.811C62.1675 102.765 61.6675 102.741 61.1595 102.741C53.3065 102.741 46.9395 108.088 46.9395 114.685C46.9395 121.282 53.3065 126.629 61.1595 126.629C64.3455 126.629 67.2805 125.743 69.6495 124.254C70.3905 123.788 71.3485 123.981 71.8375 124.707C80.0825 136.945 94.3905 146.055 111.456 149.326C112.929 149.61 113.961 150.944 113.875 152.441L112.253 180.691H138.692L137.071 152.441C136.985 150.944 138.017 149.609 139.49 149.326C156.458 146.074 170.701 137.049 178.968 124.917C179.443 124.219 180.361 124.009 181.086 124.44C183.4 125.815 186.218 126.629 189.268 126.629C197.121 126.629 203.487 121.282 203.487 114.685C203.487 108.088 197.121 102.741 189.268 102.741M186.689 101.296C186.694 101.052 186.697 100.808 186.697 100.563C186.697 72.8961 159.286 50.4671 125.474 50.4671C91.6607 50.4671 64.2507 72.8961 64.2507 100.563C64.2507 100.823 64.2527 101.084 64.2577 101.343C64.2647 101.695 64.1447 102.011 63.9447 102.262L63.9347 102.59C63.9347 102.59 114.116 96.7651 122.064 69.2781C122.064 69.2781 159.088 107.124 188.265 102.773C187.402 102.826 186.671 102.16 186.689 101.296" fill="#8d574d"/><g id="Hat_2"><path id="Fill 8" fill-rule="evenodd" clip-rule="evenodd" d="M206.608 61.3376C196.828 25.0696 141.816 23.8476 117.366 29.5526C92.9158 35.2576 46.8318 40.8756 71.3188 60.1146C94.1388 78.0446 216.388 97.6046 206.608 61.3376" fill="#2F6858"/><path id="Fill 11" fill-rule="evenodd" clip-rule="evenodd" d="M137.725 47.756C138.471 48.29 139.48 48.266 140.197 47.694C142.376 45.953 147.171 41.912 145.339 41.453C142.995 40.867 136.136 41.296 136.049 44.451C136.003 46.122 136.885 47.154 137.725 47.756" fill="#5BA092"/></g></g></g></g><g id="Expression" transform="translate(321.939 155) scale(0.989010989010989 1)"><g id="Expression/Smily"><g id="Smily"><path id="Stroke 1" fill-rule="evenodd" clip-rule="evenodd" d="M14.9952 21.9372C14.7209 21.1555 15.1322 20.2995 15.9139 20.0252C16.6957 19.7509 17.5517 20.1623 17.826 20.944C17.8931 21.1353 18.05 21.5123 18.3009 22.0113C18.7252 22.855 19.2526 23.6994 19.8838 24.4815C21.6304 26.6457 23.7985 27.9066 26.4736 27.9066C29.1864 27.9066 31.4258 26.7198 33.2588 24.6961C33.9166 23.9698 34.4721 23.187 34.9242 22.4056C35.1908 21.9451 35.359 21.5983 35.4312 21.4245C35.7488 20.6594 36.6266 20.2966 37.3917 20.6142C38.1568 20.9319 38.5196 21.8096 38.2019 22.5747C37.7572 23.646 36.8718 25.1761 35.4823 26.7101C33.1222 29.3158 30.1203 30.9066 26.4736 30.9066C22.7892 30.9066 19.8208 29.1802 17.5493 26.3656C16.2202 24.7188 15.3964 23.0808 14.9952 21.9372Z" fill="#010101"/><path id="Stroke 3" fill-rule="evenodd" clip-rule="evenodd" d="M55.6071 21.8417C55.2311 21.1035 55.5246 20.2003 56.2628 19.8242C57.0009 19.4482 57.9042 19.7417 58.2802 20.4799C58.3739 20.6637 58.5788 21.0206 58.8899 21.4917C59.4156 22.2878 60.0383 23.0851 60.7501 23.8248C62.7194 25.8715 64.9557 27.0688 67.4257 27.0688C69.8128 27.0688 71.7905 25.7867 73.4119 23.5622C74.0054 22.748 74.5039 21.8675 74.9069 20.987C75.1462 20.4642 75.297 20.0675 75.3629 19.8629C75.6169 19.0744 76.462 18.641 77.2506 18.895C78.0391 19.149 78.4724 19.9941 78.2184 20.7827C78.1183 21.0934 77.9263 21.5986 77.6348 22.2355C77.1532 23.2876 76.5575 24.3397 75.8362 25.3293C73.701 28.2587 70.9089 30.0688 67.4257 30.0688C64.0262 30.0688 61.0739 28.4881 58.5883 25.9048C57.1347 24.3942 56.1404 22.8884 55.6071 21.8417Z" fill="#010101"/><path id="Stroke 5" fill-rule="evenodd" clip-rule="evenodd" d="M33.9154 39.5937C33.4598 38.9019 33.6512 37.9716 34.3431 37.516C35.035 37.0603 35.9652 37.2518 36.4209 37.9436C36.5179 38.091 36.7492 38.3948 37.116 38.8031C37.7467 39.5052 38.5169 40.2117 39.4274 40.8726C43.4434 43.7875 48.6633 44.863 55.2833 42.9875C56.0803 42.7617 56.9095 43.2248 57.1353 44.0218C57.3611 44.8189 56.8981 45.6481 56.101 45.8739C48.5656 48.0088 42.4024 46.7389 37.6652 43.3005C35.7902 41.9396 34.5543 40.5637 33.9154 39.5937Z" fill="#010101"/></g></g></g><g id="Upper Body" transform="translate(64.9395 26) scale(0.9988674971687429 1)"><g id="Upper Body/Laptop"><g id="Body"><g id="Jumper"><path id="Jumper_2" fill-rule="evenodd" clip-rule="evenodd" d="M437.173 287.259C420.385 240.981 372.104 224.619 334.787 219.014C333.011 215.122 328.207 204.988 324.881 201.663C320.732 197.514 273.327 198.897 266.873 201.201C260.419 203.507 258.173 220.354 258.173 220.354C231.537 225.245 194.37 235.735 179.765 256.93C161.899 282.861 138.925 322.911 129.055 340.41C122.459 352.105 120.219 365.863 123.303 378.931C128.052 399.048 146.067 422.832 203.095 428.016C305.748 437.348 400.623 425.684 400.623 425.684C400.623 425.684 473.502 429.571 473.502 392.243C473.502 358.018 437.173 287.259 437.173 287.259" fill="#F2B08F"/><g id="Object"><mask id="mask0_413_82466f37c542d-b253-4144-8951-ef45b15d12e3" style="mask-type:alpha" maskUnits="userSpaceOnUse" x="121" y="199" width="353" height="233" fill="#ffffff"><path id="Jumper_3" fill-rule="evenodd" clip-rule="evenodd" d="M437.173 287.259C420.385 240.981 372.104 224.619 334.787 219.014C333.011 215.122 328.207 204.988 324.881 201.663C320.732 197.514 273.327 198.897 266.873 201.201C260.419 203.507 258.173 220.354 258.173 220.354C231.537 225.245 194.37 235.735 179.765 256.93C161.899 282.861 138.925 322.911 129.055 340.41C122.459 352.105 120.219 365.863 123.303 378.931C128.052 399.048 146.067 422.832 203.095 428.016C305.748 437.348 400.623 425.684 400.623 425.684C400.623 425.684 473.502 429.571 473.502 392.243C473.502 358.018 437.173 287.259 437.173 287.259" fill="#ffffff"/></mask><g mask="url(#mask0_413_82466f37c542d-b253-4144-8951-ef45b15d12e3)"><g id="Pattern"><path d="M356.543 246.895C358.078 246.895 359.323 244.732 359.323 243.287C359.323 241.842 358.078 240.273 356.543 240.273C355.007 240.273 353.763 241.842 353.763 243.287C353.763 244.732 355.007 246.895 356.543 246.895Z" fill="#F4F0F0"/><path d="M350.123 393.176C350.123 394.621 348.879 396.783 347.343 396.783C345.808 396.783 344.563 394.621 344.563 393.176C344.563 391.731 345.808 390.162 347.343 390.162C348.879 390.162 350.123 391.731 350.123 393.176Z" fill="#F4F0F0"/><path d="M466.06 396.315C466.06 397.76 464.816 399.922 463.28 399.922C461.744 399.922 460.5 397.76 460.5 396.315C460.5 394.87 461.744 393.301 463.28 393.301C464.816 393.301 466.06 394.87 466.06 396.315Z" fill="#F4F0F0"/><path d="M411.014 307.784C411.014 309.155 410.018 311.205 408.79 311.205C407.562 311.205 406.566 309.155 406.566 307.784C406.566 306.414 407.562 304.926 408.79 304.926C410.018 304.926 411.014 306.414 411.014 307.784Z" fill="#F4F0F0"/><path d="M372.92 389.685C374.149 389.685 375.144 387.634 375.144 386.264C375.144 384.894 374.149 383.406 372.92 383.406C371.692 383.406 370.696 384.894 370.696 386.264C370.696 387.634 371.692 389.685 372.92 389.685Z" fill="#F4F0F0"/><path d="M322.626 317.823C322.626 319.193 323.621 321.244 324.85 321.244C326.077 321.244 327.074 319.193 327.074 317.823C327.074 316.453 326.077 314.965 324.85 314.965C323.621 314.965 322.626 316.453 322.626 317.823Z" fill="#F4F0F0"/><path d="M422.225 339.429C420.783 339.923 418.827 338.292 418.302 336.934C417.777 335.576 418.376 333.701 419.819 333.207C421.262 332.713 423.002 333.787 423.527 335.145C424.053 336.502 423.669 338.935 422.225 339.429Z" fill="#F4F0F0"/><path d="M382.433 415.414C382.958 416.772 384.914 418.403 386.356 417.91C387.799 417.415 388.182 414.982 387.657 413.625C387.132 412.267 385.392 411.193 383.95 411.687C382.506 412.181 381.908 414.056 382.433 415.414Z" fill="#F4F0F0"/><path d="M442.503 351.81C440.98 351.987 439.464 349.983 439.277 348.548C439.09 347.113 440.122 345.414 441.646 345.237C443.169 345.061 444.608 346.477 444.795 347.911C444.983 349.344 444.028 351.634 442.503 351.81Z" fill="#F4F0F0"/><path d="M408.769 351.115C410.293 350.939 411.732 352.354 411.919 353.788C412.106 355.222 411.151 357.512 409.626 357.688C408.103 357.863 406.587 355.86 406.4 354.425C406.213 352.991 407.245 351.291 408.769 351.115Z" fill="#F4F0F0"/><path d="M375.153 354.549C376.678 354.373 377.632 352.083 377.445 350.649C377.259 349.215 375.82 347.8 374.296 347.976C372.771 348.152 371.739 349.852 371.927 351.286C372.114 352.72 373.629 354.724 375.153 354.549Z" fill="#F4F0F0"/><path d="M317.699 304.353C317.885 305.788 316.931 308.077 315.406 308.253C313.883 308.429 312.367 306.425 312.18 304.991C311.992 303.557 313.024 301.856 314.549 301.681C316.072 301.505 317.511 302.92 317.699 304.353Z" fill="#F4F0F0"/><path d="M412.154 276.861C413.678 276.685 414.633 274.396 414.447 272.961C414.259 271.528 412.82 270.113 411.297 270.289C409.772 270.464 408.74 272.165 408.928 273.599C409.115 275.033 410.629 277.037 412.154 276.861Z" fill="#F4F0F0"/><path d="M350.775 279.24C350.962 280.674 350.007 282.964 348.483 283.139C346.959 283.315 345.444 281.311 345.257 279.878C345.069 278.443 346.101 276.743 347.626 276.567C349.149 276.391 350.588 277.806 350.775 279.24Z" fill="#F4F0F0"/><path d="M367.369 327.342C368.894 327.166 369.848 324.877 369.661 323.442C369.474 322.009 368.035 320.594 366.512 320.77C364.987 320.946 363.955 322.646 364.143 324.079C364.33 325.514 365.844 327.518 367.369 327.342Z" fill="#F4F0F0"/><path d="M449.729 405.061C449.915 406.496 448.961 408.784 447.436 408.961C445.912 409.137 444.397 407.133 444.21 405.7C444.022 404.265 445.054 402.565 446.579 402.389C448.102 402.213 449.541 403.627 449.729 405.061Z" fill="#F4F0F0"/><path d="M333.792 401.923C333.605 400.488 332.166 399.073 330.641 399.249C329.118 399.425 328.086 401.125 328.274 402.56C328.461 403.993 329.975 405.998 331.5 405.823C333.023 405.646 333.979 403.356 333.792 401.923Z" fill="#F4F0F0"/><path d="M340.699 255.933C339.175 256.11 337.659 254.106 337.473 252.671C337.286 251.237 338.318 249.536 339.841 249.36C341.365 249.185 342.804 250.599 342.991 252.034C343.178 253.468 342.222 255.757 340.699 255.933Z" fill="#F4F0F0"/><path d="M387.431 292.588C388.59 293.535 389.508 295.838 388.501 296.929C387.493 298.019 384.942 297.484 383.783 296.536C382.625 295.588 382.182 293.675 383.189 292.584C384.197 291.494 386.272 291.64 387.431 292.588Z" fill="#F4F0F0"/><path d="M468.568 378.548C469.575 377.457 468.657 375.155 467.498 374.207C466.339 373.259 464.264 373.113 463.257 374.204C462.249 375.294 462.692 377.208 463.85 378.155C465.009 379.103 467.56 379.638 468.568 378.548Z" fill="#F4F0F0"/><path d="M347.914 375.015C346.755 374.068 346.313 372.154 347.32 371.064C348.328 369.974 350.403 370.12 351.562 371.067C352.72 372.015 353.639 374.317 352.63 375.409C351.624 376.498 349.073 375.964 347.914 375.015Z" fill="#F4F0F0"/><path d="M334.389 350.691C333.381 351.781 333.824 353.695 334.982 354.642C336.141 355.591 338.692 356.125 339.7 355.034C340.707 353.944 339.789 351.642 338.63 350.694C337.471 349.746 335.396 349.6 334.389 350.691Z" fill="#F4F0F0"/><path d="M360.287 300.386C358.463 300.145 356.705 301.814 356.449 303.532C356.193 305.248 357.288 308.014 359.112 308.255C360.937 308.496 362.799 306.121 363.056 304.405C363.313 302.688 362.112 300.628 360.287 300.386Z" fill="#F4F0F0"/><path d="M439.18 389.875C437.355 389.632 436.26 386.868 436.516 385.151C436.772 383.433 438.53 381.764 440.355 382.005C442.18 382.247 443.38 384.307 443.123 386.024C442.867 387.741 441.004 390.116 439.18 389.875Z" fill="#F4F0F0"/><path d="M316.555 385.556C314.73 385.315 312.973 386.984 312.716 388.702C312.459 390.418 313.554 393.183 315.379 393.426C317.204 393.667 319.067 391.291 319.324 389.575C319.579 387.858 318.379 385.797 316.555 385.556Z" fill="#F4F0F0"/><path d="M336.386 232.996C336.13 234.713 334.267 237.087 332.442 236.846C330.618 236.605 329.522 233.839 329.779 232.122C330.035 230.406 331.793 228.737 333.618 228.978C335.442 229.218 336.643 231.28 336.386 232.996Z" fill="#F4F0F0"/><path d="M427.87 397.544C429.187 396.8 429.069 394.342 428.278 393.104C427.488 391.865 425.562 391.123 424.246 391.868C422.929 392.612 422.721 394.559 423.513 395.798C424.303 397.037 426.554 398.288 427.87 397.544Z" fill="#F4F0F0"/><path d="M311.229 413.247C312.02 414.485 312.137 416.943 310.82 417.687C309.504 418.431 307.253 417.181 306.463 415.942C305.672 414.703 305.88 412.756 307.196 412.012C308.511 411.267 310.437 412.008 311.229 413.247Z" fill="#F4F0F0"/><path d="M321.133 244.516C322.449 243.772 322.332 241.314 321.541 240.076C320.75 238.838 318.824 238.095 317.509 238.84C316.192 239.584 315.984 241.533 316.775 242.771C317.566 244.01 319.816 245.26 321.133 244.516Z" fill="#F4F0F0"/><path d="M364.257 282.665C365.416 283.613 366.334 285.916 365.327 287.006C364.319 288.097 361.768 287.562 360.61 286.614C359.451 285.666 359.008 283.752 360.016 282.662C361.023 281.571 363.098 281.717 364.257 282.665Z" fill="#F4F0F0"/><path d="M335.247 276.492C336.255 275.402 335.336 273.099 334.178 272.151C333.019 271.203 330.944 271.057 329.936 272.148C328.929 273.238 329.371 275.152 330.53 276.1C331.689 277.048 334.24 277.583 335.247 276.492Z" fill="#F4F0F0"/><path d="M444.324 364.284C445.483 365.232 446.402 367.534 445.394 368.625C444.387 369.715 441.836 369.18 440.677 368.232C439.518 367.285 439.075 365.372 440.083 364.281C441.09 363.191 443.166 363.336 444.324 364.284Z" fill="#F4F0F0"/><path d="M313.239 365.352C312.232 366.442 312.675 368.356 313.833 369.303C314.992 370.252 317.543 370.785 318.549 369.695C319.558 368.605 318.64 366.303 317.481 365.355C316.322 364.408 314.247 364.261 313.239 365.352Z" fill="#F4F0F0"/><path d="M447.349 330.563C446.19 329.615 445.748 327.701 446.755 326.61C447.763 325.52 449.838 325.665 450.997 326.614C452.155 327.562 453.074 329.865 452.066 330.955C451.059 332.045 448.508 331.511 447.349 330.563Z" fill="#F4F0F0"/><path d="M410.886 405.09C409.878 406.181 410.321 408.095 411.48 409.042C412.639 409.991 415.19 410.524 416.196 409.434C417.205 408.344 416.286 406.042 415.127 405.093C413.969 404.146 411.893 404 410.886 405.09Z" fill="#F4F0F0"/><path d="M441.243 313.865C441.768 315.224 441.385 317.655 439.942 318.15C438.499 318.644 436.544 317.013 436.019 315.655C435.493 314.298 436.093 312.421 437.535 311.927C438.978 311.434 440.719 312.507 441.243 313.865Z" fill="#F4F0F0"/><path d="M400.149 394.135C399.624 392.777 400.224 390.902 401.666 390.408C403.108 389.913 404.849 390.988 405.374 392.346C405.9 393.702 405.516 396.136 404.072 396.63C402.63 397.124 400.674 395.493 400.149 394.135Z" fill="#F4F0F0"/><path d="M410.158 373.207C409.633 371.849 410.231 369.974 411.674 369.48C413.117 368.985 414.857 370.06 415.382 371.418C415.908 372.774 415.523 375.208 414.081 375.702C412.639 376.196 410.682 374.565 410.158 373.207Z" fill="#F4F0F0"/><path d="M408.425 325.296C409.838 325.861 411.984 324.795 412.585 323.465C413.184 322.135 412.607 320.699 411.194 320.135C409.78 319.57 408.067 320.09 407.466 321.42C406.867 322.75 407.011 324.731 408.425 325.296Z" fill="#F4F0F0"/><path d="M314.813 222.555C314.213 223.885 312.067 224.952 310.653 224.387C309.24 223.822 309.095 221.841 309.695 220.511C310.295 219.181 312.009 218.661 313.422 219.226C314.836 219.79 315.413 221.225 314.813 222.555Z" fill="#F4F0F0"/><path d="M371.596 399.899C370.997 401.229 371.141 403.211 372.555 403.775C373.968 404.34 376.115 403.274 376.715 401.944C377.314 400.615 376.737 399.179 375.324 398.614C373.91 398.049 372.197 398.569 371.596 399.899Z" fill="#F4F0F0"/><path d="M347.141 344.466C345.728 343.901 345.582 341.92 346.183 340.59C346.783 339.26 348.497 338.74 349.91 339.305C351.324 339.87 351.901 341.304 351.301 342.634C350.701 343.964 348.555 345.031 347.141 344.466Z" fill="#F4F0F0"/><path d="M311.859 329.563C313.272 330.128 315.418 329.061 316.019 327.731C316.618 326.401 316.041 324.966 314.628 324.402C313.214 323.837 311.501 324.357 310.9 325.687C310.301 327.017 310.445 328.998 311.859 329.563Z" fill="#F4F0F0"/><path d="M388.302 264.947C387.701 266.277 385.555 267.344 384.142 266.779C382.728 266.214 382.584 264.233 383.183 262.903C383.783 261.573 385.497 261.053 386.91 261.618C388.324 262.182 388.901 263.618 388.302 264.947Z" fill="#F4F0F0"/><path d="M321.918 257.186C321.317 258.516 321.463 260.498 322.876 261.062C324.29 261.627 326.436 260.561 327.036 259.231C327.636 257.901 327.059 256.466 325.645 255.901C324.232 255.336 322.518 255.856 321.918 257.186Z" fill="#F4F0F0"/><path d="M396.895 279.85C396.295 281.18 394.148 282.247 392.735 281.682C391.322 281.117 391.177 279.136 391.776 277.806C392.377 276.476 394.091 275.956 395.504 276.521C396.917 277.085 397.494 278.521 396.895 279.85Z" fill="#F4F0F0"/><path d="M361.025 358.33C361.625 357 361.048 355.565 359.635 355.001C358.221 354.436 356.507 354.956 355.906 356.286C355.307 357.616 355.452 359.598 356.866 360.162C358.279 360.726 360.424 359.66 361.025 358.33Z" fill="#F4F0F0"/><path d="M325.742 343.427C325.143 344.757 322.997 345.824 321.583 345.259C320.17 344.694 320.024 342.713 320.625 341.383C321.224 340.053 322.939 339.533 324.352 340.098C325.766 340.662 326.343 342.097 325.742 343.427Z" fill="#F4F0F0"/><path d="M390.511 339.234C391.924 339.799 394.07 338.732 394.671 337.402C395.27 336.072 394.693 334.637 393.28 334.073C391.866 333.508 390.153 334.028 389.552 335.358C388.953 336.688 389.097 338.669 390.511 339.234Z" fill="#F4F0F0"/><path d="M334.924 291.107C334.323 292.437 332.177 293.504 330.763 292.939C329.35 292.374 329.205 290.393 329.805 289.063C330.405 287.733 332.119 287.213 333.532 287.778C334.946 288.342 335.523 289.777 334.924 291.107Z" fill="#F4F0F0"/><path d="M309.518 276.771C310.932 277.336 313.078 276.269 313.679 274.939C314.278 273.609 313.701 272.174 312.287 271.61C310.874 271.045 309.16 271.565 308.56 272.895C307.96 274.225 308.105 276.205 309.518 276.771Z" fill="#F4F0F0"/><path d="M368 265.994C367.4 267.324 365.254 268.39 363.841 267.825C362.427 267.26 362.282 265.279 362.882 263.949C363.482 262.619 365.196 262.099 366.61 262.664C368.023 263.228 368.6 264.664 368 265.994Z" fill="#F4F0F0"/></g><g id="Pattern_2"><path d="M253.504 242.017C251.964 241.908 250.878 239.511 250.988 237.97C251.097 236.428 252.466 234.844 254.006 234.954C255.548 235.063 256.677 236.825 256.568 238.367C256.458 239.908 255.045 242.127 253.504 242.017Z" fill="#F4F0F0"/><path d="M248.842 398.518C248.732 400.06 249.817 402.455 251.358 402.564C252.899 402.674 254.313 400.457 254.422 398.915C254.532 397.374 253.401 395.612 251.861 395.502C250.32 395.392 248.952 396.977 248.842 398.518Z" fill="#F4F0F0"/><path d="M132.25 393.587C132.14 395.128 133.225 397.523 134.766 397.633C136.307 397.743 137.72 395.525 137.83 393.984C137.94 392.442 136.81 390.68 135.269 390.571C133.727 390.461 132.359 392.045 132.25 393.587Z" fill="#F4F0F0"/><path d="M194.214 303.08C194.11 304.542 194.955 306.8 196.187 306.887C197.419 306.975 198.575 304.859 198.679 303.397C198.783 301.936 197.896 300.278 196.663 300.19C195.431 300.102 194.318 301.618 194.214 303.08Z" fill="#F4F0F0"/><path d="M226.228 393.166C224.995 393.078 224.152 390.819 224.256 389.358C224.36 387.897 225.472 386.381 226.705 386.469C227.937 386.556 228.824 388.215 228.72 389.676C228.616 391.137 227.46 393.254 226.228 393.166Z" fill="#F4F0F0"/><path d="M282.159 320.101C282.055 321.562 280.9 323.679 279.667 323.591C278.435 323.503 277.591 321.244 277.695 319.783C277.799 318.322 278.912 316.806 280.144 316.894C281.377 316.981 282.263 318.64 282.159 320.101Z" fill="#F4F0F0"/><path d="M180.561 336.036C181.971 336.666 184.058 335.065 184.687 333.655C185.317 332.243 184.859 330.2 183.448 329.57C182.037 328.94 180.21 329.962 179.58 331.373C178.949 332.783 179.149 335.406 180.561 336.036Z" fill="#F4F0F0"/><path d="M214.728 419.934C214.098 421.344 212.011 422.944 210.601 422.316C209.19 421.684 208.991 419.062 209.621 417.652C210.251 416.24 212.079 415.219 213.489 415.849C214.9 416.479 215.358 418.522 214.728 419.934Z" fill="#F4F0F0"/><path d="M159.27 347.794C160.785 348.092 162.459 346.062 162.755 344.545C163.052 343.028 162.145 341.142 160.629 340.844C159.114 340.548 157.562 341.956 157.266 343.471C156.968 344.987 157.753 347.498 159.27 347.794Z" fill="#F4F0F0"/><path d="M193.178 349.463C191.662 349.166 190.11 350.573 189.814 352.088C189.517 353.605 190.302 356.116 191.819 356.412C193.335 356.709 195.008 354.679 195.304 353.162C195.601 351.647 194.694 349.759 193.178 349.463Z" fill="#F4F0F0"/><path d="M226.654 355.526C225.137 355.229 224.354 352.719 224.65 351.202C224.946 349.686 226.498 348.28 228.014 348.576C229.53 348.872 230.437 350.76 230.139 352.276C229.843 353.793 228.171 355.822 226.654 355.526Z" fill="#F4F0F0"/><path d="M288.126 306.084C287.83 307.601 288.614 310.112 290.131 310.408C291.646 310.704 293.32 308.675 293.616 307.159C293.914 305.642 293.007 303.755 291.49 303.458C289.975 303.162 288.423 304.568 288.126 306.084Z" fill="#F4F0F0"/><path d="M195.418 270.012C193.901 269.715 193.117 267.205 193.413 265.688C193.71 264.172 195.262 262.765 196.777 263.062C198.294 263.358 199.201 265.246 198.903 266.763C198.607 268.279 196.935 270.308 195.418 270.012Z" fill="#F4F0F0"/><path d="M256.837 276.932C256.54 278.449 257.325 280.96 258.841 281.256C260.358 281.553 262.03 279.523 262.326 278.007C262.624 276.49 261.717 274.603 260.2 274.306C258.685 274.01 257.133 275.417 256.837 276.932Z" fill="#F4F0F0"/><path d="M236.532 327.06C235.015 326.763 234.231 324.253 234.528 322.736C234.824 321.22 236.376 319.814 237.891 320.11C239.408 320.407 240.315 322.294 240.017 323.81C239.721 325.327 238.049 327.356 236.532 327.06Z" fill="#F4F0F0"/><path d="M147.975 404.083C147.68 405.6 148.464 408.11 149.981 408.407C151.497 408.704 153.17 406.674 153.466 405.158C153.763 403.641 152.857 401.754 151.34 401.457C149.824 401.161 148.273 402.566 147.975 404.083Z" fill="#F4F0F0"/><path d="M264.568 409.015C264.865 407.498 266.416 406.092 267.933 406.388C269.449 406.685 270.355 408.572 270.058 410.089C269.761 411.605 268.089 413.636 266.573 413.339C265.057 413.042 264.272 410.531 264.568 409.015Z" fill="#F4F0F0"/><path d="M268.719 252.79C270.235 253.088 271.908 251.058 272.204 249.541C272.501 248.024 271.594 246.137 270.078 245.84C268.563 245.544 267.011 246.95 266.715 248.467C266.417 249.983 267.203 252.494 268.719 252.79Z" fill="#F4F0F0"/><path d="M219.036 288.554C217.801 289.481 216.705 291.872 217.633 293.108C218.561 294.343 221.162 293.954 222.397 293.026C223.632 292.097 224.221 290.088 223.293 288.852C222.365 287.617 220.271 287.625 219.036 288.554Z" fill="#F4F0F0"/><path d="M131.082 374.456C130.154 373.219 131.25 370.829 132.485 369.901C133.72 368.972 135.814 368.965 136.742 370.2C137.67 371.435 137.081 373.445 135.846 374.373C134.611 375.301 132.01 375.689 131.082 374.456Z" fill="#F4F0F0"/><path d="M252.438 379.304C253.673 378.376 254.262 376.366 253.334 375.131C252.405 373.896 250.312 373.904 249.077 374.832C247.842 375.76 246.745 378.15 247.675 379.387C248.602 380.621 251.203 380.233 252.438 379.304Z" fill="#F4F0F0"/><path d="M267.858 354.322C268.787 355.557 268.197 357.567 266.963 358.494C265.728 359.424 263.127 359.811 262.198 358.576C261.27 357.341 262.367 354.951 263.602 354.022C264.836 353.094 266.93 353.087 267.858 354.322Z" fill="#F4F0F0"/><path d="M245.685 298.811C247.535 298.684 249.172 300.59 249.299 302.44C249.425 304.289 248.116 307.162 246.268 307.289C244.418 307.415 242.729 304.749 242.601 302.9C242.474 301.05 243.835 298.938 245.685 298.811Z" fill="#F4F0F0"/><path d="M159.716 388.637C161.566 388.508 162.874 385.638 162.748 383.788C162.621 381.938 160.983 380.032 159.134 380.158C157.284 380.286 155.923 382.398 156.051 384.248C156.177 386.098 157.866 388.763 159.716 388.637Z" fill="#F4F0F0"/><path d="M283.11 392.788C284.96 392.661 286.596 394.567 286.724 396.417C286.851 398.266 285.542 401.138 283.692 401.267C281.842 401.393 280.153 398.726 280.026 396.877C279.9 395.027 281.26 392.914 283.11 392.788Z" fill="#F4F0F0"/><path d="M274.789 228.63C274.915 230.48 276.604 233.146 278.454 233.02C280.304 232.892 281.613 230.02 281.485 228.17C281.359 226.321 279.721 224.415 277.872 224.542C276.023 224.668 274.661 226.781 274.789 228.63Z" fill="#F4F0F0"/><path d="M170.484 397.625C169.219 396.738 169.524 394.124 170.411 392.86C171.299 391.595 173.288 390.941 174.552 391.83C175.817 392.717 175.878 394.81 174.989 396.075C174.103 397.34 171.749 398.513 170.484 397.625Z" fill="#F4F0F0"/><path d="M286.352 422.707C285.465 423.971 285.161 426.585 286.426 427.473C287.69 428.36 290.045 427.187 290.931 425.922C291.819 424.657 291.758 422.565 290.494 421.677C289.23 420.788 287.241 421.442 286.352 422.707Z" fill="#F4F0F0"/><path d="M289.222 242.009C287.958 241.121 288.262 238.508 289.149 237.244C290.037 235.98 292.026 235.325 293.29 236.213C294.555 237.101 294.615 239.194 293.728 240.458C292.84 241.723 290.487 242.897 289.222 242.009Z" fill="#F4F0F0"/><path d="M243.046 279.623C241.812 280.552 240.715 282.943 241.643 284.178C242.572 285.413 245.172 285.025 246.407 284.096C247.642 283.168 248.232 281.158 247.303 279.923C246.375 278.688 244.281 278.695 243.046 279.623Z" fill="#F4F0F0"/><path d="M272.629 275.111C271.701 273.876 272.798 271.485 274.032 270.556C275.267 269.628 277.361 269.621 278.289 270.856C279.218 272.091 278.628 274.101 277.393 275.029C276.158 275.958 273.558 276.346 272.629 275.111Z" fill="#F4F0F0"/><path d="M156.495 360.971C155.26 361.9 154.164 364.29 155.092 365.525C156.021 366.76 158.621 366.372 159.856 365.443C161.091 364.516 161.681 362.506 160.752 361.271C159.824 360.036 157.73 360.043 156.495 360.971Z" fill="#F4F0F0"/><path d="M287.971 371.472C288.899 372.707 288.31 374.717 287.075 375.644C285.84 376.574 283.239 376.961 282.312 375.726C281.382 374.491 282.479 372.101 283.714 371.172C284.949 370.245 287.042 370.237 287.971 371.472Z" fill="#F4F0F0"/><path d="M156.02 324.783C157.254 323.855 157.844 321.845 156.916 320.61C155.987 319.375 153.894 319.382 152.659 320.31C151.424 321.239 150.327 323.63 151.255 324.865C152.184 326.1 154.785 325.712 156.02 324.783Z" fill="#F4F0F0"/><path d="M186.956 406.888C187.885 408.123 187.295 410.133 186.06 411.061C184.826 411.991 182.225 412.378 181.298 411.143C180.368 409.907 181.465 407.517 182.7 406.589C183.934 405.661 186.028 405.653 186.956 406.888Z" fill="#F4F0F0"/><path d="M163.415 307.408C162.785 308.819 162.985 311.441 164.395 312.072C165.806 312.702 167.892 311.101 168.522 309.69C169.153 308.279 168.694 306.235 167.284 305.605C165.873 304.975 164.045 305.996 163.415 307.408Z" fill="#F4F0F0"/><path d="M198.563 395.969C199.193 394.558 198.734 392.515 197.324 391.885C195.914 391.254 194.086 392.276 193.456 393.687C192.825 395.096 193.025 397.72 194.437 398.35C195.847 398.98 197.934 397.379 198.563 395.969Z" fill="#F4F0F0"/><path d="M190.108 372.93C190.738 371.519 190.279 369.476 188.868 368.846C187.458 368.215 185.63 369.237 185 370.648C184.37 372.057 184.571 374.681 185.981 375.311C187.391 375.941 189.478 374.34 190.108 372.93Z" fill="#F4F0F0"/><path d="M195.484 321.945C194.022 322.447 191.949 321.156 191.448 319.694C190.947 318.233 191.635 316.743 193.097 316.242C194.558 315.74 196.238 316.417 196.74 317.879C197.241 319.34 196.945 321.443 195.484 321.945Z" fill="#F4F0F0"/><path d="M297.231 219.034C297.733 220.496 299.806 221.786 301.267 221.285C302.729 220.783 303.024 218.68 302.524 217.219C302.022 215.757 300.342 215.08 298.88 215.582C297.419 216.082 296.731 217.573 297.231 219.034Z" fill="#F4F0F0"/><path d="M226.781 404.157C227.282 405.618 226.986 407.722 225.525 408.223C224.064 408.725 221.991 407.434 221.489 405.972C220.988 404.512 221.677 403.022 223.138 402.52C224.599 402.018 226.28 402.695 226.781 404.157Z" fill="#F4F0F0"/><path d="M255.533 346.771C256.994 346.27 257.29 344.166 256.789 342.705C256.287 341.243 254.607 340.566 253.145 341.068C251.684 341.569 250.996 343.059 251.496 344.52C251.998 345.982 254.071 347.272 255.533 346.771Z" fill="#F4F0F0"/><path d="M292.073 333.393C290.612 333.895 288.539 332.604 288.037 331.143C287.537 329.681 288.225 328.191 289.686 327.69C291.148 327.188 292.828 327.865 293.33 329.327C293.83 330.789 293.535 332.891 292.073 333.393Z" fill="#F4F0F0"/><path d="M220.26 259.007C220.762 260.468 222.835 261.759 224.297 261.257C225.758 260.755 226.053 258.653 225.553 257.191C225.051 255.729 223.371 255.052 221.909 255.554C220.448 256.055 219.76 257.545 220.26 259.007Z" fill="#F4F0F0"/><path d="M287.472 255.468C287.974 256.93 287.677 259.034 286.216 259.534C284.755 260.036 282.682 258.745 282.18 257.284C281.679 255.822 282.368 254.333 283.829 253.831C285.29 253.33 286.971 254.007 287.472 255.468Z" fill="#F4F0F0"/><path d="M210.505 274.29C211.006 275.752 213.079 277.043 214.541 276.541C216.002 276.039 216.298 273.936 215.797 272.475C215.295 271.013 213.615 270.336 212.154 270.838C210.692 271.339 210.004 272.829 210.505 274.29Z" fill="#F4F0F0"/><path d="M240.547 360.569C240.045 359.108 240.733 357.617 242.194 357.117C243.656 356.615 245.337 357.292 245.839 358.754C246.339 360.215 246.043 362.319 244.582 362.82C243.12 363.32 241.048 362.031 240.547 360.569Z" fill="#F4F0F0"/><path d="M277.087 347.191C277.588 348.653 279.661 349.944 281.122 349.442C282.584 348.94 282.88 346.838 282.379 345.376C281.878 343.914 280.197 343.237 278.735 343.739C277.274 344.24 276.586 345.73 277.087 347.191Z" fill="#F4F0F0"/><path d="M212.404 338.092C210.943 338.594 208.87 337.303 208.368 335.842C207.867 334.38 208.556 332.89 210.017 332.389C211.478 331.887 213.159 332.565 213.66 334.026C214.161 335.488 213.865 337.59 212.404 338.092Z" fill="#F4F0F0"/><path d="M271.845 290.724C272.346 292.186 274.419 293.477 275.881 292.975C277.342 292.473 277.638 290.37 277.137 288.909C276.635 287.447 274.955 286.77 273.494 287.272C272.032 287.773 271.344 289.263 271.845 290.724Z" fill="#F4F0F0"/><path d="M298.43 277.245C296.968 277.747 294.895 276.456 294.393 274.995C293.893 273.533 294.581 272.043 296.042 271.542C297.504 271.04 299.184 271.718 299.686 273.179C300.186 274.641 299.891 276.743 298.43 277.245Z" fill="#F4F0F0"/><path d="M240.556 261.573C241.056 263.034 243.129 264.325 244.591 263.823C246.052 263.321 246.349 261.219 245.847 259.757C245.346 258.296 243.665 257.618 242.204 258.12C240.742 258.621 240.054 260.111 240.556 261.573Z" fill="#F4F0F0"/></g></g></g><path id="Jumper Details" fill-rule="evenodd" clip-rule="evenodd" d="M305.378 198.234C304.827 198.273 304.413 198.752 304.453 199.303L305.801 217.976C305.841 218.527 306.319 218.941 306.87 218.901C307.421 218.862 307.835 218.383 307.796 217.832L306.448 199.159C306.408 198.608 305.929 198.194 305.378 198.234ZM315.831 199.834C315.712 199.294 316.052 198.76 316.591 198.641C317.13 198.521 317.664 198.861 317.784 199.4L322.019 218.458C322.139 218.997 321.799 219.531 321.26 219.651C320.72 219.771 320.186 219.431 320.066 218.892L315.831 199.834ZM380.242 309.322C380.434 309.84 380.17 310.415 379.652 310.607C379.134 310.799 378.559 310.535 378.367 310.017L374.562 299.745C374.37 299.227 374.634 298.652 375.152 298.46C375.67 298.268 376.246 298.532 376.437 299.05L380.242 309.322ZM213.822 310.678C213.475 311.107 212.845 311.174 212.416 310.827C211.986 310.48 211.919 309.851 212.266 309.421L220.256 299.529C220.603 299.099 221.233 299.032 221.662 299.379C222.092 299.726 222.159 300.356 221.812 300.786L213.822 310.678ZM303.723 338.636C303.476 338.142 302.875 337.942 302.381 338.189L291.245 343.756C290.751 344.003 290.551 344.604 290.798 345.098C291.045 345.592 291.646 345.792 292.14 345.545L303.276 339.978C303.77 339.731 303.97 339.13 303.723 338.636ZM290.783 199.2C290.8 198.648 291.261 198.215 291.813 198.231C292.365 198.248 292.799 198.71 292.782 199.262L292.204 218.127C292.187 218.679 291.726 219.112 291.174 219.096C290.622 219.079 290.188 218.617 290.205 218.065L290.783 199.2ZM275.423 199.213C274.882 199.105 274.355 199.456 274.247 199.998L270.589 218.286C270.48 218.827 270.831 219.354 271.373 219.462C271.915 219.571 272.441 219.22 272.55 218.678L276.208 200.39C276.316 199.848 275.965 199.322 275.423 199.213Z" fill="#E58857"/></g><g id="Laptop"><path id="Fill 4" fill-rule="evenodd" clip-rule="evenodd" d="M195.34 309.998H420.308L399.102 433.085H210.092L195.34 309.998Z" fill="#B9B3B8"/><path id="Combined Shape" fill-rule="evenodd" clip-rule="evenodd" d="M293.942 366.684C295.061 364.082 296.059 361.559 296.903 359.156C298.772 353.838 299.814 349.371 299.831 345.935L299.925 346.044C301.539 347.909 303.153 349.946 304.657 352.086C307.202 355.705 309.165 359.237 310.319 362.523C311.01 364.492 311.393 366.333 311.443 368.02C311.445 368.096 311.456 368.17 311.474 368.241C307.472 368.603 304.117 372.223 303.7 376.911C303.239 382.106 306.559 386.645 311.117 387.05C315.675 387.455 319.744 383.572 320.205 378.378C320.645 373.415 317.633 369.05 313.388 368.318C313.426 368.207 313.446 368.086 313.442 367.961C313.386 366.051 312.961 364.012 312.206 361.861C310.983 358.377 308.935 354.693 306.294 350.936C304.747 348.737 303.093 346.648 301.438 344.735C300.858 344.065 300.32 343.465 299.835 342.942C299.543 342.626 299.333 342.405 299.218 342.288C298.499 341.552 297.271 342.251 297.536 343.245C298.369 346.367 297.408 351.689 295.016 358.492C294.188 360.85 293.207 363.332 292.104 365.894C290.843 368.827 289.49 371.712 288.137 374.424C287.664 375.373 287.224 376.232 286.83 376.986C286.595 377.436 286.427 377.751 286.338 377.914C286.213 378.145 286.188 378.403 286.249 378.638C286.052 378.624 285.853 378.617 285.653 378.617C280.696 378.617 276.678 382.91 276.678 388.206C276.678 393.502 280.696 397.796 285.653 397.796C290.61 397.796 294.629 393.502 294.629 388.206C294.629 383.793 291.838 380.077 288.04 378.96C288.06 378.931 288.079 378.9 288.097 378.867C288.121 378.823 288.166 378.74 288.23 378.618C288.338 378.416 288.463 378.18 288.603 377.912C289.002 377.147 289.447 376.277 289.927 375.317C291.295 372.573 292.664 369.655 293.942 366.684Z" fill="#F4F0F0"/></g></g></g></g></g></g></g></svg>